<?xml version="1.0" encoding="UTF-8"?>
<svg xmlns="http://www.w3.org/2000/svg" xmlns:xlink="http://www.w3.org/1999/xlink" width="34px" height="34px" viewBox="0 0 34 34" version="1.1">
<defs>
<filter id="alpha" filterUnits="objectBoundingBox" x="0%" y="0%" width="100%" height="100%">
  <feColorMatrix type="matrix" in="SourceGraphic" values="0 0 0 0 1 0 0 0 0 1 0 0 0 0 1 0 0 0 1 0"/>
</filter>
<mask id="mask0">
  <g filter="url(#alpha)">
<rect x="0" y="0" width="34" height="34" style="fill:rgb(0%,0%,0%);fill-opacity:0.972549;stroke:none;"/>
  </g>
</mask>
<clipPath id="clip1">
  <rect x="0" y="0" width="34" height="34"/>
</clipPath>
<g id="surface5" clip-path="url(#clip1)">
<path style=" stroke:none;fill-rule:evenodd;fill:rgb(99.607843%,100%,99.607843%);fill-opacity:1;" d="M 15.4375 -0.03125 C 16.457031 -0.03125 17.476562 -0.03125 18.492188 -0.03125 C 19.863281 0.125 21.214844 0.414062 22.546875 0.828125 C 22.101562 2.105469 21.59375 3.355469 21.015625 4.582031 C 20.042969 4.34375 19.058594 4.15625 18.0625 4.015625 C 18.007812 6.695312 18.019531 9.375 18.09375 12.054688 C 18.6875 12.199219 19.226562 12.441406 19.722656 12.78125 C 21.566406 10.871094 23.4375 8.980469 25.335938 7.105469 C 24.558594 6.429688 23.714844 5.839844 22.8125 5.34375 C 23.328125 4.097656 23.859375 2.859375 24.40625 1.625 C 27.902344 3.398438 30.539062 6.035156 32.304688 9.53125 C 31.066406 10.078125 29.816406 10.609375 28.554688 11.125 C 28.105469 10.242188 27.5625 9.421875 26.929688 8.664062 C 26.894531 8.597656 26.851562 8.585938 26.796875 8.632812 C 24.953125 10.476562 23.105469 12.324219 21.25 14.179688 C 21.378906 14.476562 21.511719 14.789062 21.648438 15.109375 C 21.757812 15.386719 21.835938 15.675781 21.882812 15.96875 C 24.558594 15.992188 27.238281 15.96875 29.914062 15.90625 C 29.785156 14.871094 29.585938 13.855469 29.320312 12.851562 C 30.578125 12.363281 31.84375 11.875 33.101562 11.390625 C 33.527344 12.742188 33.816406 14.113281 33.96875 15.507812 C 33.96875 16.5 33.96875 17.5 33.96875 18.492188 C 33.808594 19.863281 33.519531 21.214844 33.101562 22.546875 C 31.835938 22.078125 30.574219 21.589844 29.320312 21.085938 C 29.585938 20.078125 29.785156 19.0625 29.914062 18.03125 C 27.238281 17.960938 24.558594 17.941406 21.882812 17.960938 C 21.835938 18.257812 21.757812 18.546875 21.648438 18.828125 C 21.476562 19.128906 21.34375 19.4375 21.25 19.757812 C 23.140625 21.621094 25 23.503906 26.828125 25.398438 C 27.484375 24.59375 28.0625 23.730469 28.554688 22.8125 C 29.816406 23.324219 31.066406 23.855469 32.304688 24.40625 C 30.535156 27.902344 27.902344 30.535156 24.40625 32.304688 C 23.859375 31.074219 23.328125 29.835938 22.8125 28.585938 C 23.710938 28.082031 24.550781 27.496094 25.335938 26.828125 C 23.4375 24.953125 21.566406 23.0625 19.722656 21.148438 C 19.226562 21.492188 18.6875 21.734375 18.09375 21.882812 C 18.019531 24.558594 18.007812 27.238281 18.0625 29.914062 C 19.058594 29.777344 20.042969 29.589844 21.015625 29.351562 C 21.59375 30.578125 22.101562 31.828125 22.546875 33.101562 C 21.171875 33.539062 19.777344 33.824219 18.359375 33.96875 C 17.429688 33.96875 16.5 33.96875 15.570312 33.96875 C 14.15625 33.824219 12.761719 33.539062 11.390625 33.101562 C 11.832031 31.828125 12.339844 30.578125 12.914062 29.351562 C 13.890625 29.589844 14.875 29.777344 15.871094 29.914062 C 15.925781 27.238281 15.914062 24.558594 15.835938 21.882812 C 15.246094 21.734375 14.707031 21.492188 14.210938 21.148438 C 12.367188 23.058594 10.496094 24.953125 8.601562 26.828125 C 9.375 27.503906 10.21875 28.09375 11.125 28.585938 C 10.605469 29.835938 10.074219 31.074219 9.53125 32.304688 C 5.988281 30.578125 3.351562 27.945312 1.625 24.40625 C 2.867188 23.855469 4.117188 23.324219 5.378906 22.8125 C 5.828125 23.691406 6.371094 24.511719 7.007812 25.265625 C 7.039062 25.335938 7.082031 25.347656 7.140625 25.300781 C 8.980469 23.457031 10.828125 21.609375 12.683594 19.757812 C 12.5625 19.453125 12.429688 19.140625 12.285156 18.828125 C 12.175781 18.546875 12.097656 18.257812 12.054688 17.960938 C 9.375 17.941406 6.695312 17.960938 4.015625 18.03125 C 4.132812 19.0625 4.332031 20.082031 4.617188 21.085938 C 3.351562 21.570312 2.089844 22.058594 0.828125 22.546875 C 0.402344 21.214844 0.117188 19.867188 -0.03125 18.492188 C -0.03125 17.476562 -0.03125 16.457031 -0.03125 15.4375 C 0.125 14.070312 0.414062 12.71875 0.828125 11.390625 C 2.09375 11.875 3.351562 12.363281 4.617188 12.851562 C 4.332031 13.851562 4.132812 14.871094 4.015625 15.90625 C 6.695312 15.96875 9.375 15.992188 12.054688 15.96875 C 12.117188 15.609375 12.21875 15.253906 12.351562 14.90625 C 12.484375 14.664062 12.59375 14.421875 12.683594 14.179688 C 10.828125 12.324219 8.980469 10.476562 7.140625 8.632812 C 7.082031 8.585938 7.039062 8.597656 7.007812 8.664062 C 6.371094 9.421875 5.828125 10.242188 5.378906 11.125 C 4.117188 10.609375 2.867188 10.078125 1.625 9.53125 C 3.351562 5.988281 5.988281 3.351562 9.53125 1.625 C 10.074219 2.859375 10.605469 4.097656 11.125 5.34375 C 10.21875 5.839844 9.375 6.429688 8.601562 7.105469 C 10.496094 8.980469 12.367188 10.875 14.210938 12.78125 C 14.707031 12.441406 15.246094 12.199219 15.835938 12.054688 C 15.914062 9.375 15.925781 6.695312 15.871094 4.015625 C 14.875 4.15625 13.890625 4.34375 12.914062 4.582031 C 12.339844 3.355469 11.832031 2.105469 11.390625 0.828125 C 12.71875 0.414062 14.070312 0.125 15.4375 -0.03125 Z M 16.765625 14.976562 C 18.109375 15.015625 18.839844 15.699219 18.960938 17.03125 C 18.6875 18.441406 17.847656 19.050781 16.4375 18.859375 C 15.144531 18.304688 14.734375 17.363281 15.207031 16.039062 C 15.566406 15.441406 16.085938 15.089844 16.765625 14.976562 Z M 16.765625 14.976562 "/>
</g>
</defs>
<g id="surface1">
<use xlink:href="#surface5" mask="url(#mask0)"/>
</g>
</svg>
